<svg version="1" xmlns="http://www.w3.org/2000/svg" width="682.667" height="682.667" viewBox="0 0 512.000000 512.000000"><path d="M195.4 7.7c.4 4.3.9 9.8 1.1 12.3.4 4.3.9 10.9 2.1 24.5.6 8.5 1.4 17.2 1.9 22.5.2 2.5.7 7.4.9 11 .3 3.6 1.2 14.6 2.1 24.5.8 9.9 1.7 20.9 2 24.5.8 9.7 1.4 16.3 2.1 22.7.4 3.8 3.3 12.5 8.8 26.3l8.3 20.7-10 13.9c-5.5 7.6-16.3 22.7-24 33.4-7.7 10.7-17 23.6-20.6 28.6l-6.6 9.2-.3-36.2-.2-36.1-78.6-39.3c-43.3-21.6-78.9-39-79.2-38.7-.3.3-.6 28.1-.6 61.8v61.3l7.3 15.9c4.1 8.8 8.7 18.9 10.3 22.5 1.7 3.6 3.8 8.3 4.8 10.5 1.9 4.4 17.6 38.7 21.7 47.5 1.4 3 4.8 10.4 7.5 16.5 2.8 6 6.8 14.7 8.9 19.3 2.1 4.6 3.9 8.5 3.9 8.7 0 .1 1.7 4.1 3.9 8.7 6.6 14.1 46.3 101.1 47.8 104.6l1.3 3.2h114.8l114.7-.1 68.3-171.2c37.6-94.2 68.7-172.1 69.2-173.2 5.6-12.8 5.3-11.6 7-34 .6-7.7 1.3-15.8 1.5-18 .4-3.6.7-7.5 2-23 .2-2.8.9-10.2 1.4-16.5.6-6.3 1.3-15.1 1.6-19.5.4-4.4.8-9.1 1-10.5.2-1.4.6-6.6 1-11.5.4-5 .8-10.6 1-12.5 1.2-12.7 1.6-22.2.9-21.9-.5.3-7.9 3.9-16.4 8.1-8.5 4.2-32.1 15.7-52.3 25.7L400.8 52h-99.6l-18.1-9c-9.9-4.9-23.5-11.6-30.3-14.9-6.8-3.2-21.7-10.6-33.3-16.3C208 6.1 197.7 1.1 196.6.7c-1.7-.7-1.8-.2-1.2 7z"/></svg>